# xmcd
#
# Track frame offsets:
#	182
#	29667
#	49680
#	86397
#	103735
#	155455
#	193332
#	233785
#
# Disc length: 3444 seconds
#
# Revision: 2
# Processed by: cddbd v1.4PL0 Copyright (c) Steve Scherf et al.
# Submitted via: CDmax 1.8
#
DISCID=640d7208
DTITLE=Robben Ford - Sunrise
DYEAR=1999
DGENRE=Blues
TTITLE0=Oh Gee
TTITLE1=Red Rooster
TTITLE2=Eighty One
TTITLE3=Ain't Nobody's Business
TTITLE4=Sunrise
TTITLE5=Blue and Lonesome
TTITLE6=Miss Miss
TTITLE7=Everyday I Have the Blues
EXTD=LABEL =Avenue Jazz\nID =R275630\nUPC =08122-75630-28\nCOPYRIGHT =1972
EXTD=, 1999\n*****\nRobben Ford: guitar, saxophone, vocals\nPaul Nagle: keyboa
EXTD=rds\nStan Poplin: bass, guitar\nJim Baum: drums\n\nRecorded live by Far O
EXTD=ut Mobile Recording Unit in 1972 at the Ash Gove, Hollywood, CA, the Gold
EXTD=en Bear, Huntington, CA and the Marquee Club, London, U.K.
EXTT0=
EXTT1=
EXTT2=
EXTT3=
EXTT4=
EXTT5=
EXTT6=
EXTT7=
PLAYORDER=
